# This file uses centimeters as units for non-parametric coordinates.

v 0.000000 0.000000 0.500000
v 0.613283 0.370656 0.500000
v 0.000000 0.000000 -0.500000
v 0.613283 0.370656 -0.500000
v -0.613283 0.370656 0.500000
v -0.613283 0.370656 -0.500000
vt 0.000000 1.000000
vt 1.000000 1.000000
vt 1.000000 0.000000
vt 0.000000 0.000000
vt 1.000000 0.000000
vt 1.000000 1.000000
vn 0.000000 1.000000 0.000000
vn -0.517250 0.855835 0.000000
vn -0.517250 0.855835 0.000000
vn 0.000000 1.000000 0.000000
vn 0.517250 0.855835 0.000000
vn 0.517250 0.855835 0.000000
f 1/1/1 2/2/2 4/3/3 3/4/4
f 1/1/1 3/4/4 6/5/5 5/6/6
