# This file uses centimeters as units for non-parametric coordinates.

v 0.987689 0.000000 -0.156434
v 0.951057 0.000000 -0.309017
v 0.891007 0.000000 -0.453991
v 0.809018 0.000000 -0.587785
v 0.707107 0.000000 -0.707107
v 0.587786 0.000000 -0.809017
v 0.453991 0.000000 -0.891007
v 0.309017 0.000000 -0.951057
v 0.156435 0.000000 -0.987689
v 0.000000 0.000000 -1.000001
v -0.156434 0.000000 -0.987689
v -0.309017 0.000000 -0.951057
v -0.453991 0.000000 -0.891007
v -0.587785 0.000000 -0.809018
v -0.707107 0.000000 -0.707107
v -0.809017 0.000000 -0.587786
v -0.891007 0.000000 -0.453991
v -0.951057 0.000000 -0.309017
v -0.987689 0.000000 -0.156435
v -1.000000 0.000000 -0.000000
v -0.987689 0.000000 0.156434
v -0.951057 0.000000 0.309017
v -0.891007 0.000000 0.453990
v -0.809017 0.000000 0.587785
v -0.707107 0.000000 0.707107
v -0.587786 0.000000 0.809017
v -0.453991 0.000000 0.891007
v -0.309017 0.000000 0.951057
v -0.156435 0.000000 0.987689
v -0.000000 0.000000 1.000000
v 0.156434 0.000000 0.987689
v 0.309017 0.000000 0.951057
v 0.453991 0.000000 0.891007
v 0.587785 0.000000 0.809017
v 0.707107 0.000000 0.707107
v 0.809017 0.000000 0.587785
v 0.891007 0.000000 0.453991
v 0.951057 0.000000 0.309017
v 0.987688 0.000000 0.156434
v 1.000000 0.000000 0.000000
v 0.000000 0.000000 0.000000
vt 0.654326 0.819307
vt 0.648603 0.795466
vt 0.639220 0.772814
vt 0.626409 0.751909
vt 0.610486 0.733265
vt 0.591842 0.717341
vt 0.570936 0.704530
vt 0.548284 0.695147
vt 0.524443 0.689424
vt 0.500000 0.687500
vt 0.475557 0.689424
vt 0.451716 0.695147
vt 0.429064 0.704530
vt 0.408159 0.717341
vt 0.389515 0.733264
vt 0.373591 0.751908
vt 0.360780 0.772814
vt 0.351397 0.795466
vt 0.345674 0.819307
vt 0.343750 0.843750
vt 0.345674 0.868193
vt 0.351397 0.892034
vt 0.360780 0.914686
vt 0.373591 0.935591
vt 0.389515 0.954235
vt 0.408159 0.970159
vt 0.429064 0.982970
vt 0.451716 0.992353
vt 0.475557 0.998076
vt 0.500000 1.000000
vt 0.524443 0.998076
vt 0.548284 0.992353
vt 0.570936 0.982970
vt 0.591841 0.970159
vt 0.610485 0.954235
vt 0.626409 0.935591
vt 0.639220 0.914686
vt 0.648603 0.892034
vt 0.654326 0.868193
vt 0.656250 0.843750
vt 0.500000 0.837500
vn 0.000000 1.000000 0.000000
vn 0.000000 1.000000 0.000000
vn 0.000000 1.000000 0.000000
vn 0.000000 1.000000 0.000000
vn 0.000000 1.000000 0.000000
vn 0.000000 1.000000 0.000000
vn 0.000000 1.000000 0.000000
vn 0.000000 1.000000 0.000000
vn 0.000000 1.000000 0.000000
vn 0.000000 1.000000 0.000000
vn 0.000000 1.000000 0.000000
vn 0.000000 1.000000 0.000000
vn 0.000000 1.000000 0.000000
vn 0.000000 1.000000 0.000000
vn 0.000000 1.000000 0.000000
vn 0.000000 1.000000 0.000000
vn 0.000000 1.000000 0.000000
vn 0.000000 1.000000 0.000000
vn 0.000000 1.000000 0.000000
vn 0.000000 1.000000 0.000000
vn 0.000000 1.000000 0.000000
vn 0.000000 1.000000 0.000000
vn 0.000000 1.000000 0.000000
vn 0.000000 1.000000 0.000000
vn 0.000000 1.000000 0.000000
vn 0.000000 1.000000 0.000000
vn 0.000000 1.000000 0.000000
vn 0.000000 1.000000 0.000000
vn 0.000000 1.000000 0.000000
vn 0.000000 1.000000 0.000000
vn 0.000000 1.000000 0.000000
vn 0.000000 1.000000 0.000000
vn 0.000000 1.000000 0.000000
vn 0.000000 1.000000 0.000000
vn 0.000000 1.000000 0.000000
vn 0.000000 1.000000 0.000000
vn 0.000000 1.000000 0.000000
vn 0.000000 1.000000 0.000000
vn 0.000000 1.000000 0.000000
vn 0.000000 1.000000 0.000000
vn 0.000000 1.000000 0.000000
f 1/39/1 2/38/2 41/41/3
f 2/38/2 3/37/4 41/41/3
f 3/37/4 4/36/5 41/41/3
f 4/36/5 5/35/6 41/41/3
f 5/35/6 6/34/7 41/41/3
f 6/34/7 7/33/8 41/41/3
f 7/33/8 8/32/9 41/41/3
f 8/32/9 9/31/10 41/41/3
f 9/31/10 10/30/11 41/41/3
f 10/30/11 11/29/12 41/41/3
f 11/29/12 12/28/13 41/41/3
f 12/28/13 13/27/14 41/41/3
f 13/27/14 14/26/15 41/41/3
f 14/26/15 15/25/16 41/41/3
f 15/25/16 16/24/17 41/41/3
f 16/24/17 17/23/18 41/41/3
f 17/23/18 18/22/19 41/41/3
f 18/22/19 19/21/20 41/41/3
f 19/21/20 20/20/21 41/41/3
f 20/20/21 21/19/22 41/41/3
f 21/19/22 22/18/23 41/41/3
f 22/18/23 23/17/24 41/41/3
f 23/17/24 24/16/25 41/41/3
f 24/16/25 25/15/26 41/41/3
f 25/15/26 26/14/27 41/41/3
f 26/14/27 27/13/28 41/41/3
f 27/13/28 28/12/29 41/41/3
f 28/12/29 29/11/30 41/41/3
f 29/11/30 30/10/31 41/41/3
f 30/10/31 31/9/32 41/41/3
f 31/9/32 32/8/33 41/41/3
f 32/8/33 33/7/34 41/41/3
f 33/7/34 34/6/35 41/41/3
f 34/6/35 35/5/36 41/41/3
f 35/5/36 36/4/37 41/41/3
f 36/4/37 37/3/38 41/41/3
f 37/3/38 38/2/39 41/41/3
f 38/2/39 39/1/40 41/41/3
f 39/1/40 40/40/41 41/41/3
f 40/40/41 1/39/1 41/41/3
